<svg xmlns="http://www.w3.org/2000/svg" width="960" height="400" viewBox="0 0 960 400" role="img" aria-labelledby="title desc">
<title id="title">159126  港股通50ETF南方</title>
<desc id="desc">腾讯港股分钟价；共同时间戳交集；固定汇率 0.86482；公布净值 0.9490</desc>
<rect width="100%" height="100%" fill="white"/>
<text x="72" y="23" fill="#20242a" font-size="13" font-weight="700">159126  港股通50ETF南方</text>
<text x="72" y="39" fill="#626975" font-size="8.5">腾讯港股分钟价；共同时间戳交集；固定汇率 0.86482；公布净值 0.9490</text>
<line x1="72" y1="346.00" x2="890" y2="346.00" stroke="#e6e8eb" stroke-width="1"/><text x="63" y="350.00" text-anchor="end" fill="#626975" font-size="8">0.9461</text><line x1="72" y1="274.00" x2="890" y2="274.00" stroke="#e6e8eb" stroke-width="1"/><text x="63" y="278.00" text-anchor="end" fill="#626975" font-size="8">0.9477</text><line x1="72" y1="202.00" x2="890" y2="202.00" stroke="#e6e8eb" stroke-width="1"/><text x="63" y="206.00" text-anchor="end" fill="#626975" font-size="8">0.9494</text><line x1="72" y1="130.00" x2="890" y2="130.00" stroke="#e6e8eb" stroke-width="1"/><text x="63" y="134.00" text-anchor="end" fill="#626975" font-size="8">0.9511</text><line x1="72" y1="58.00" x2="890" y2="58.00" stroke="#e6e8eb" stroke-width="1"/><text x="63" y="62.00" text-anchor="end" fill="#626975" font-size="8">0.9527</text>
<line x1="72" y1="58" x2="72" y2="346" stroke="#b9bec7" stroke-width="1"/><line x1="72" y1="346" x2="890" y2="346" stroke="#b9bec7" stroke-width="1"/>
<line x1="72.00" y1="346" x2="72.00" y2="350" stroke="#b9bec7" stroke-width="1"/><text x="72.00" y="363" text-anchor="middle" fill="#626975" font-size="8">09:30</text><line x1="277.12" y1="346" x2="277.12" y2="350" stroke="#b9bec7" stroke-width="1"/><text x="277.12" y="363" text-anchor="middle" fill="#626975" font-size="8">10:53</text><line x1="482.24" y1="346" x2="482.24" y2="350" stroke="#b9bec7" stroke-width="1"/><text x="482.24" y="363" text-anchor="middle" fill="#626975" font-size="8">13:15</text><line x1="687.35" y1="346" x2="687.35" y2="350" stroke="#b9bec7" stroke-width="1"/><text x="687.35" y="363" text-anchor="middle" fill="#626975" font-size="8">14:38</text><line x1="890.00" y1="346" x2="890.00" y2="350" stroke="#b9bec7" stroke-width="1"/><text x="890.00" y="363" text-anchor="middle" fill="#626975" font-size="8">16:08</text>
<line x1="72" y1="219.21" x2="890" y2="219.21" stroke="#565b65" stroke-width="1.2" stroke-dasharray="5 4"/>
<polyline points="72.00,298.05 74.47,234.84 76.94,173.51 79.41,171.08 81.89,218.15 84.36,235.18 86.83,230.34 89.30,291.19 91.77,261.84 94.24,265.32 96.71,305.13 99.18,318.13 101.66,308.52 104.13,301.32 106.60,282.20 109.07,290.31 111.54,283.33 114.01,288.41 116.48,250.29 118.95,251.67 121.43,237.29 123.90,238.59 126.37,216.64 128.84,209.26 131.31,197.83 133.78,205.29 136.25,223.17 138.73,212.20 141.20,197.60 143.67,180.34 146.14,168.16 148.61,159.40 151.08,167.67 153.55,178.42 156.02,174.14 158.50,167.42 160.97,181.22 163.44,174.40 165.91,175.50 168.38,200.83 170.85,196.56 173.32,210.18 175.79,247.86 178.27,271.18 180.74,246.04 183.21,263.39 185.68,261.91 188.15,251.19 190.62,249.09 193.09,247.91 195.56,225.65 198.04,209.33 200.51,196.62 202.98,220.39 205.45,223.15 207.92,232.96 210.39,238.22 212.86,240.78 215.34,234.45 217.81,233.13 220.28,229.38 222.75,231.84 225.22,245.18 227.69,240.02 230.16,223.72 232.63,213.54 235.11,240.27 237.58,223.32 240.05,226.01 242.52,213.62 244.99,206.89 247.46,202.07 249.93,202.86 252.40,192.20 254.88,204.16 257.35,207.51 259.82,226.46 262.29,224.08 264.76,198.16 267.23,178.42 269.70,173.25 272.18,186.63 274.65,189.14 277.12,192.96 279.59,180.86 282.06,163.99 284.53,174.90 287.00,182.86 289.47,186.26 291.95,184.28 294.42,189.29 296.89,200.72 299.36,202.88 301.83,205.86 304.30,203.00 306.77,210.79 309.24,213.42 311.72,215.94 314.19,235.30 316.66,247.73 319.13,245.55 321.60,221.88 324.07,208.56 326.54,198.90 329.02,212.86 331.49,215.75 333.96,208.50 336.43,206.07 338.90,207.28 341.37,197.67 343.84,194.10 346.31,183.84 348.79,188.05 351.26,195.69 353.73,206.74 356.20,204.46 358.67,214.16 361.14,201.34 363.61,197.48 366.08,203.26 368.56,194.85 371.03,195.80 373.50,196.31 375.97,201.77 378.44,201.46 380.91,191.57 383.38,183.68 385.85,184.72 388.33,179.73 390.80,176.88 393.27,177.36 395.74,169.23 398.21,166.57 400.68,161.24 403.15,157.67 405.63,159.95 408.10,150.86 410.57,157.00 413.04,140.64 415.51,140.57 417.98,140.04 420.45,146.32 422.92,145.94 425.40,148.24 427.87,146.83 430.34,139.16 432.81,140.55 435.28,143.06 437.75,138.65 440.22,146.87 442.69,145.32 445.17,145.32 447.64,210.68 450.11,190.22 452.58,179.67 455.05,182.64 457.52,193.95 459.99,200.14 462.47,224.19 464.94,224.56 467.41,238.40 469.88,223.96 472.35,199.49 474.82,202.55 477.29,198.18 479.76,189.02 482.24,187.86 484.71,189.10 487.18,136.60 489.65,109.29 492.12,99.81 494.59,101.10 497.06,85.87 499.53,92.70 502.01,93.40 504.48,114.58 506.95,121.00 509.42,140.88 511.89,162.37 514.36,159.96 516.83,158.02 519.31,171.70 521.78,180.14 524.25,201.04 526.72,196.90 529.19,205.36 531.66,209.70 534.13,205.09 536.60,195.35 539.08,187.88 541.55,182.14 544.02,174.71 546.49,183.56 548.96,177.81 551.43,173.03 553.90,169.27 556.37,157.50 558.85,151.47 561.32,149.04 563.79,153.39 566.26,158.48 568.73,154.73 571.20,152.47 573.67,156.15 576.15,163.52 578.62,159.75 581.09,170.14 583.56,178.27 586.03,173.30 588.50,177.40 590.97,163.21 593.44,167.01 595.92,172.74 598.39,179.13 600.86,183.39 603.33,194.85 605.80,193.95 608.27,186.71 610.74,199.96 613.21,188.56 615.69,185.13 618.16,181.55 620.63,182.11 623.10,178.44 625.57,191.39 628.04,193.91 630.51,193.75 632.98,192.13 635.46,198.86 637.93,205.04 640.40,208.92 642.87,238.00 645.34,238.06 647.81,236.81 650.28,227.34 652.76,217.54 655.23,207.81 657.70,213.77 660.17,204.42 662.64,182.82 665.11,178.72 667.58,178.69 670.05,180.71 672.53,174.91 675.00,179.90 677.47,176.87 679.94,181.58 682.41,176.23 684.88,174.93 687.35,180.88 689.82,179.32 692.30,175.65 694.77,162.15 697.24,162.75 699.71,162.86 702.18,165.15 704.65,166.90 707.12,177.49 709.60,166.85 712.07,175.72 714.54,163.55 717.01,162.85 719.48,170.47 721.95,161.25 724.42,162.41 726.89,153.03 729.37,163.82 731.84,155.69 734.31,164.20 736.78,164.16 739.25,159.53 741.72,153.82 744.19,178.10 746.66,173.35 749.14,165.50 751.61,187.76 754.08,168.91 756.55,159.26 759.02,135.20 761.49,137.58 763.96,147.98 766.44,155.49 768.91,146.98 771.38,152.54 773.85,152.25 776.32,156.16 778.79,151.09 781.26,163.63 783.73,165.16 786.21,180.59 788.68,172.94 791.15,181.35 793.62,175.47 796.09,174.43 798.56,178.44 801.03,180.65 803.50,176.65 805.98,184.58 808.45,188.09 810.92,177.42 813.39,174.52 815.86,161.78 818.33,172.19 820.80,158.19 823.27,161.36 825.75,177.61 828.22,186.74 830.69,193.52 833.16,201.11 835.63,194.27 838.10,200.60 840.57,216.08 843.05,219.67 845.52,218.70 847.99,239.39 850.46,229.26 852.93,217.87 855.40,222.94 857.87,201.20 860.34,210.59 862.82,205.24 865.29,201.84 867.76,224.38 870.23,218.10 872.70,220.22 875.17,221.36 877.64,235.56 880.11,221.50 882.59,228.31 885.06,224.07 887.53,224.66 890.00,220.42" fill="none" stroke="#2f6b9a" stroke-width="1.7" stroke-linejoin="round" stroke-linecap="round"/>
<text x="480.00" y="393" text-anchor="middle" fill="#4e535d" font-size="9">香港时间</text>
<text x="15" y="202.00" transform="rotate(-90 15 202.00)" text-anchor="middle" fill="#4e535d" font-size="9">单位净值 / IOPV</text>
</svg>