<svg xmlns="http://www.w3.org/2000/svg" width="960" height="400" viewBox="0 0 960 400" role="img" aria-labelledby="title desc">
<title id="title">159750  港股科技50ETF招商</title>
<desc id="desc">腾讯港股分钟价；共同时间戳交集；固定汇率 0.86482；公布净值 0.8431</desc>
<rect width="100%" height="100%" fill="white"/>
<text x="72" y="23" fill="#20242a" font-size="13" font-weight="700">159750  港股科技50ETF招商</text>
<text x="72" y="39" fill="#626975" font-size="8.5">腾讯港股分钟价；共同时间戳交集；固定汇率 0.86482；公布净值 0.8431</text>
<line x1="72" y1="346.00" x2="890" y2="346.00" stroke="#e6e8eb" stroke-width="1"/><text x="63" y="350.00" text-anchor="end" fill="#626975" font-size="8">0.8410</text><line x1="72" y1="274.00" x2="890" y2="274.00" stroke="#e6e8eb" stroke-width="1"/><text x="63" y="278.00" text-anchor="end" fill="#626975" font-size="8">0.8432</text><line x1="72" y1="202.00" x2="890" y2="202.00" stroke="#e6e8eb" stroke-width="1"/><text x="63" y="206.00" text-anchor="end" fill="#626975" font-size="8">0.8454</text><line x1="72" y1="130.00" x2="890" y2="130.00" stroke="#e6e8eb" stroke-width="1"/><text x="63" y="134.00" text-anchor="end" fill="#626975" font-size="8">0.8475</text><line x1="72" y1="58.00" x2="890" y2="58.00" stroke="#e6e8eb" stroke-width="1"/><text x="63" y="62.00" text-anchor="end" fill="#626975" font-size="8">0.8497</text>
<line x1="72" y1="58" x2="72" y2="346" stroke="#b9bec7" stroke-width="1"/><line x1="72" y1="346" x2="890" y2="346" stroke="#b9bec7" stroke-width="1"/>
<line x1="72.00" y1="346" x2="72.00" y2="350" stroke="#b9bec7" stroke-width="1"/><text x="72.00" y="363" text-anchor="middle" fill="#626975" font-size="8">09:30</text><line x1="277.12" y1="346" x2="277.12" y2="350" stroke="#b9bec7" stroke-width="1"/><text x="277.12" y="363" text-anchor="middle" fill="#626975" font-size="8">10:53</text><line x1="482.24" y1="346" x2="482.24" y2="350" stroke="#b9bec7" stroke-width="1"/><text x="482.24" y="363" text-anchor="middle" fill="#626975" font-size="8">13:15</text><line x1="687.35" y1="346" x2="687.35" y2="350" stroke="#b9bec7" stroke-width="1"/><text x="687.35" y="363" text-anchor="middle" fill="#626975" font-size="8">14:38</text><line x1="890.00" y1="346" x2="890.00" y2="350" stroke="#b9bec7" stroke-width="1"/><text x="890.00" y="363" text-anchor="middle" fill="#626975" font-size="8">16:08</text>
<line x1="72" y1="277.37" x2="890" y2="277.37" stroke="#565b65" stroke-width="1.2" stroke-dasharray="5 4"/>
<polyline points="72.00,139.81 74.47,162.48 76.94,111.53 79.41,97.21 81.89,154.12 84.36,161.58 86.83,152.78 89.30,181.01 91.77,185.82 94.24,184.04 96.71,218.60 99.18,208.99 101.66,237.05 104.13,245.86 106.60,266.73 109.07,274.13 111.54,298.29 114.01,287.86 116.48,244.85 118.95,237.63 121.43,250.26 123.90,266.29 126.37,262.11 128.84,244.27 131.31,211.71 133.78,215.72 136.25,269.12 138.73,288.15 141.20,294.00 143.67,263.70 146.14,273.75 148.61,251.42 151.08,218.22 153.55,197.93 156.02,181.65 158.50,164.47 160.97,167.98 163.44,154.08 165.91,137.28 168.38,172.91 170.85,150.61 173.32,169.90 175.79,192.34 178.27,216.33 180.74,208.42 183.21,224.93 185.68,221.62 188.15,206.03 190.62,220.99 193.09,237.60 195.56,232.36 198.04,212.84 200.51,204.07 202.98,214.96 205.45,200.29 207.92,194.68 210.39,198.63 212.86,209.39 215.34,198.80 217.81,194.53 220.28,201.90 222.75,202.56 225.22,209.04 227.69,201.17 230.16,201.68 232.63,221.42 235.11,243.10 237.58,227.54 240.05,229.24 242.52,227.05 244.99,227.36 247.46,232.48 249.93,238.54 252.40,225.22 254.88,227.30 257.35,230.30 259.82,239.23 262.29,242.73 264.76,218.54 267.23,196.27 269.70,189.98 272.18,220.18 274.65,232.40 277.12,240.10 279.59,227.47 282.06,216.92 284.53,226.25 287.00,231.33 289.47,240.51 291.95,245.50 294.42,250.28 296.89,257.62 299.36,250.25 301.83,255.18 304.30,254.75 306.77,263.56 309.24,266.34 311.72,253.08 314.19,264.75 316.66,268.89 319.13,262.76 321.60,241.24 324.07,227.94 326.54,209.36 329.02,213.71 331.49,228.05 333.96,220.29 336.43,227.88 338.90,229.08 341.37,230.75 343.84,222.16 346.31,219.67 348.79,226.99 351.26,238.00 353.73,240.21 356.20,249.26 358.67,257.08 361.14,234.10 363.61,225.66 366.08,225.45 368.56,216.35 371.03,219.34 373.50,217.45 375.97,219.84 378.44,218.21 380.91,212.21 383.38,205.02 385.85,190.66 388.33,189.03 390.80,178.50 393.27,182.79 395.74,178.90 398.21,174.50 400.68,170.07 403.15,164.51 405.63,161.53 408.10,152.30 410.57,158.40 413.04,151.13 415.51,154.18 417.98,153.37 420.45,158.68 422.92,163.60 425.40,168.14 427.87,166.07 430.34,165.78 432.81,171.36 435.28,176.12 437.75,169.08 440.22,183.99 442.69,177.54 445.17,177.54 447.64,236.51 450.11,234.25 452.58,222.21 455.05,224.94 457.52,245.80 459.99,243.30 462.47,277.04 464.94,276.45 467.41,285.40 469.88,273.58 472.35,260.87 474.82,263.58 477.29,253.79 479.76,227.34 482.24,226.41 484.71,226.38 487.18,167.39 489.65,141.26 492.12,123.15 494.59,121.92 497.06,111.81 499.53,95.31 502.01,85.87 504.48,103.48 506.95,117.23 509.42,129.38 511.89,156.41 514.36,157.43 516.83,172.89 519.31,177.08 521.78,184.21 524.25,205.59 526.72,207.93 529.19,209.22 531.66,215.87 534.13,215.10 536.60,208.49 539.08,196.45 541.55,193.68 544.02,193.86 546.49,201.02 548.96,194.92 551.43,195.82 553.90,196.29 556.37,198.48 558.85,190.99 561.32,170.30 563.79,189.34 566.26,196.48 568.73,193.55 571.20,186.89 573.67,207.35 576.15,228.92 578.62,243.91 581.09,251.66 583.56,252.83 586.03,245.18 588.50,241.85 590.97,233.42 593.44,234.30 595.92,245.69 598.39,245.15 600.86,251.20 603.33,261.04 605.80,262.85 608.27,267.00 610.74,269.76 613.21,254.27 615.69,243.50 618.16,249.52 620.63,247.62 623.10,248.77 625.57,267.79 628.04,269.47 630.51,268.26 632.98,273.32 635.46,283.33 637.93,286.94 640.40,294.13 642.87,307.68 645.34,318.13 647.81,315.18 650.28,312.37 652.76,308.75 655.23,297.54 657.70,300.71 660.17,297.80 662.64,277.94 665.11,271.63 667.58,266.37 670.05,277.08 672.53,267.60 675.00,267.03 677.47,270.85 679.94,276.90 682.41,278.59 684.88,265.98 687.35,271.55 689.82,273.76 692.30,257.15 694.77,248.81 697.24,258.47 699.71,258.05 702.18,256.70 704.65,259.58 707.12,269.69 709.60,262.52 712.07,262.73 714.54,259.38 717.01,259.25 719.48,264.42 721.95,259.63 724.42,265.08 726.89,261.58 729.37,265.29 731.84,261.67 734.31,264.97 736.78,270.81 739.25,271.04 741.72,268.66 744.19,274.07 746.66,270.79 749.14,273.65 751.61,293.61 754.08,289.84 756.55,284.40 759.02,262.66 761.49,258.06 763.96,258.88 766.44,267.37 768.91,263.89 771.38,268.19 773.85,270.26 776.32,274.02 778.79,276.82 781.26,278.16 783.73,281.56 786.21,277.99 788.68,274.96 791.15,272.16 793.62,271.32 796.09,272.46 798.56,272.52 801.03,271.33 803.50,264.82 805.98,261.51 808.45,269.65 810.92,265.05 813.39,255.59 815.86,249.13 818.33,260.85 820.80,248.77 823.27,243.50 825.75,257.78 828.22,261.51 830.69,271.63 833.16,271.01 835.63,274.09 838.10,277.38 840.57,286.72 843.05,295.51 845.52,297.53 847.99,299.56 850.46,289.42 852.93,286.33 855.40,282.99 857.87,275.21 860.34,268.43 862.82,263.90 865.29,268.15 867.76,286.33 870.23,287.96 872.70,286.23 875.17,283.30 877.64,283.26 880.11,277.69 882.59,284.35 885.06,279.95 887.53,275.51 890.00,279.52" fill="none" stroke="#2f6b9a" stroke-width="1.7" stroke-linejoin="round" stroke-linecap="round"/>
<text x="480.00" y="393" text-anchor="middle" fill="#4e535d" font-size="9">香港时间</text>
<text x="15" y="202.00" transform="rotate(-90 15 202.00)" text-anchor="middle" fill="#4e535d" font-size="9">单位净值 / IOPV</text>
</svg>