<svg xmlns="http://www.w3.org/2000/svg" width="960" height="400" viewBox="0 0 960 400" role="img" aria-labelledby="title desc">
<title id="title">159741  恒生科技ETF嘉实</title>
<desc id="desc">腾讯港股分钟价；共同时间戳交集；固定汇率 0.86482；公布净值 0.5611</desc>
<rect width="100%" height="100%" fill="white"/>
<text x="72" y="23" fill="#20242a" font-size="13" font-weight="700">159741  恒生科技ETF嘉实</text>
<text x="72" y="39" fill="#626975" font-size="8.5">腾讯港股分钟价；共同时间戳交集；固定汇率 0.86482；公布净值 0.5611</text>
<line x1="72" y1="346.00" x2="890" y2="346.00" stroke="#e6e8eb" stroke-width="1"/><text x="63" y="350.00" text-anchor="end" fill="#626975" font-size="8">0.5595</text><line x1="72" y1="274.00" x2="890" y2="274.00" stroke="#e6e8eb" stroke-width="1"/><text x="63" y="278.00" text-anchor="end" fill="#626975" font-size="8">0.5618</text><line x1="72" y1="202.00" x2="890" y2="202.00" stroke="#e6e8eb" stroke-width="1"/><text x="63" y="206.00" text-anchor="end" fill="#626975" font-size="8">0.5641</text><line x1="72" y1="130.00" x2="890" y2="130.00" stroke="#e6e8eb" stroke-width="1"/><text x="63" y="134.00" text-anchor="end" fill="#626975" font-size="8">0.5663</text><line x1="72" y1="58.00" x2="890" y2="58.00" stroke="#e6e8eb" stroke-width="1"/><text x="63" y="62.00" text-anchor="end" fill="#626975" font-size="8">0.5686</text>
<line x1="72" y1="58" x2="72" y2="346" stroke="#b9bec7" stroke-width="1"/><line x1="72" y1="346" x2="890" y2="346" stroke="#b9bec7" stroke-width="1"/>
<line x1="72.00" y1="346" x2="72.00" y2="350" stroke="#b9bec7" stroke-width="1"/><text x="72.00" y="363" text-anchor="middle" fill="#626975" font-size="8">09:30</text><line x1="277.12" y1="346" x2="277.12" y2="350" stroke="#b9bec7" stroke-width="1"/><text x="277.12" y="363" text-anchor="middle" fill="#626975" font-size="8">10:53</text><line x1="482.24" y1="346" x2="482.24" y2="350" stroke="#b9bec7" stroke-width="1"/><text x="482.24" y="363" text-anchor="middle" fill="#626975" font-size="8">13:15</text><line x1="687.35" y1="346" x2="687.35" y2="350" stroke="#b9bec7" stroke-width="1"/><text x="687.35" y="363" text-anchor="middle" fill="#626975" font-size="8">14:38</text><line x1="890.00" y1="346" x2="890.00" y2="350" stroke="#b9bec7" stroke-width="1"/><text x="890.00" y="363" text-anchor="middle" fill="#626975" font-size="8">16:08</text>
<line x1="72" y1="296.04" x2="890" y2="296.04" stroke="#565b65" stroke-width="1.2" stroke-dasharray="5 4"/>
<polyline points="72.00,106.78 74.47,124.83 76.94,93.73 79.41,85.87 81.89,125.53 84.36,127.36 86.83,118.50 89.30,132.49 91.77,135.76 94.24,139.68 96.71,169.07 99.18,160.25 101.66,184.77 104.13,183.23 106.60,197.99 109.07,203.41 111.54,221.80 114.01,219.15 116.48,192.11 118.95,187.98 121.43,189.87 123.90,207.26 126.37,204.74 128.84,198.84 131.31,186.78 133.78,195.11 136.25,225.95 138.73,234.44 141.20,243.53 143.67,221.17 146.14,235.96 148.61,220.58 151.08,201.23 153.55,184.21 156.02,177.94 158.50,163.42 160.97,162.71 163.44,159.95 165.91,141.42 168.38,162.17 170.85,146.07 173.32,155.83 175.79,173.53 178.27,190.50 180.74,188.12 183.21,197.68 185.68,196.88 188.15,187.90 190.62,197.89 193.09,205.49 195.56,205.27 198.04,194.00 200.51,188.73 202.98,195.10 205.45,188.50 207.92,186.95 210.39,191.24 212.86,198.97 215.34,192.12 217.81,186.68 220.28,192.47 222.75,191.04 225.22,197.87 227.69,192.22 230.16,195.13 232.63,205.37 235.11,220.87 237.58,208.51 240.05,209.55 242.52,206.91 244.99,208.63 247.46,212.64 249.93,218.12 252.40,216.56 254.88,218.35 257.35,218.36 259.82,219.81 262.29,228.17 264.76,212.86 267.23,203.84 269.70,200.94 272.18,220.62 274.65,226.73 277.12,231.52 279.59,224.08 282.06,219.74 284.53,220.46 287.00,223.60 289.47,227.19 291.95,227.17 294.42,230.07 296.89,230.73 299.36,228.40 301.83,231.65 304.30,232.17 306.77,240.08 309.24,242.20 311.72,233.11 314.19,242.04 316.66,246.27 319.13,240.30 321.60,228.35 324.07,222.25 326.54,211.54 329.02,213.10 331.49,223.99 333.96,223.19 336.43,225.84 338.90,227.78 341.37,227.98 343.84,220.32 346.31,218.75 348.79,223.35 351.26,231.19 353.73,233.49 356.20,241.56 358.67,248.75 361.14,230.98 363.61,225.47 366.08,227.50 368.56,220.21 371.03,219.37 373.50,222.97 375.97,226.56 378.44,223.45 380.91,219.34 383.38,214.36 385.85,209.86 388.33,205.75 390.80,197.44 393.27,202.11 395.74,199.48 398.21,197.59 400.68,195.44 403.15,191.60 405.63,192.99 408.10,186.75 410.57,193.95 413.04,189.63 415.51,191.17 417.98,189.24 420.45,190.52 422.92,192.47 425.40,197.67 427.87,200.10 430.34,198.78 432.81,200.83 435.28,202.87 437.75,198.04 440.22,208.42 442.69,204.26 445.17,204.26 447.64,242.09 450.11,235.61 452.58,232.03 455.05,233.06 457.52,252.39 459.99,251.04 462.47,269.19 464.94,269.70 467.41,278.88 469.88,273.13 472.35,264.79 474.82,265.92 477.29,261.69 479.76,245.51 482.24,241.84 484.71,244.86 487.18,211.25 489.65,202.14 492.12,187.99 494.59,186.33 497.06,182.51 499.53,172.30 502.01,166.83 504.48,177.46 506.95,190.18 509.42,196.09 511.89,213.28 514.36,214.98 516.83,225.55 519.31,226.63 521.78,236.23 524.25,254.00 526.72,252.69 529.19,253.65 531.66,258.93 534.13,254.13 536.60,252.18 539.08,247.97 541.55,244.49 544.02,243.77 546.49,246.97 548.96,241.06 551.43,242.17 553.90,248.61 556.37,250.80 558.85,248.03 561.32,240.63 563.79,249.58 566.26,253.76 568.73,251.39 571.20,241.74 573.67,254.55 576.15,264.22 578.62,271.93 581.09,276.96 583.56,275.91 586.03,272.83 588.50,269.74 590.97,268.66 593.44,265.90 595.92,273.96 598.39,273.35 600.86,277.24 603.33,284.23 605.80,285.00 608.27,289.42 610.74,292.42 613.21,280.12 615.69,274.42 618.16,278.81 620.63,277.72 623.10,280.54 625.57,291.37 628.04,290.77 630.51,288.55 632.98,291.23 635.46,299.78 637.93,302.87 640.40,305.88 642.87,315.36 645.34,318.13 647.81,317.81 650.28,317.61 652.76,315.29 655.23,310.55 657.70,313.01 660.17,312.80 662.64,297.96 665.11,292.29 667.58,288.87 670.05,296.46 672.53,293.55 675.00,292.14 677.47,294.30 679.94,300.23 682.41,300.49 684.88,292.48 687.35,295.80 689.82,295.77 692.30,284.46 694.77,279.40 697.24,286.60 699.71,285.70 702.18,284.05 704.65,282.96 707.12,290.03 709.60,284.36 712.07,282.44 714.54,281.97 717.01,283.18 719.48,286.66 721.95,284.60 724.42,288.83 726.89,284.23 729.37,284.99 731.84,284.00 734.31,285.45 736.78,290.27 739.25,289.46 741.72,286.38 744.19,291.53 746.66,288.47 749.14,291.03 751.61,303.98 754.08,301.52 756.55,299.33 759.02,284.92 761.49,282.63 763.96,282.49 766.44,284.61 768.91,282.28 771.38,285.48 773.85,286.23 776.32,289.75 778.79,290.76 781.26,291.44 783.73,291.43 786.21,290.48 788.68,289.11 791.15,282.83 793.62,284.16 796.09,284.58 798.56,283.58 801.03,284.05 803.50,282.47 805.98,280.71 808.45,286.37 810.92,283.16 813.39,277.32 815.86,274.04 818.33,281.84 820.80,274.20 823.27,268.79 825.75,280.16 828.22,281.05 830.69,288.54 833.16,287.84 835.63,291.40 838.10,293.06 840.57,300.02 843.05,306.26 845.52,308.15 847.99,308.35 850.46,301.92 852.93,301.43 855.40,298.01 857.87,291.60 860.34,286.23 862.82,283.70 865.29,287.39 867.76,299.25 870.23,298.28 872.70,297.96 875.17,298.61 877.64,296.90 880.11,294.57 882.59,298.20 885.06,294.72 887.53,293.55 890.00,296.18" fill="none" stroke="#2f6b9a" stroke-width="1.7" stroke-linejoin="round" stroke-linecap="round"/>
<text x="480.00" y="393" text-anchor="middle" fill="#4e535d" font-size="9">香港时间</text>
<text x="15" y="202.00" transform="rotate(-90 15 202.00)" text-anchor="middle" fill="#4e535d" font-size="9">单位净值 / IOPV</text>
</svg>