<svg xmlns="http://www.w3.org/2000/svg" width="960" height="400" viewBox="0 0 960 400" role="img" aria-labelledby="title desc">
<title id="title">513770  港股互联网ETF华宝</title>
<desc id="desc">腾讯港股分钟价；共同时间戳交集；固定汇率 0.86482；公布净值 0.3491</desc>
<rect width="100%" height="100%" fill="white"/>
<text x="72" y="23" fill="#20242a" font-size="13" font-weight="700">513770  港股互联网ETF华宝</text>
<text x="72" y="39" fill="#626975" font-size="8.5">腾讯港股分钟价；共同时间戳交集；固定汇率 0.86482；公布净值 0.3491</text>
<line x1="72" y1="346.00" x2="890" y2="346.00" stroke="#e6e8eb" stroke-width="1"/><text x="63" y="350.00" text-anchor="end" fill="#626975" font-size="8">0.3486</text><line x1="72" y1="274.00" x2="890" y2="274.00" stroke="#e6e8eb" stroke-width="1"/><text x="63" y="278.00" text-anchor="end" fill="#626975" font-size="8">0.3498</text><line x1="72" y1="202.00" x2="890" y2="202.00" stroke="#e6e8eb" stroke-width="1"/><text x="63" y="206.00" text-anchor="end" fill="#626975" font-size="8">0.3509</text><line x1="72" y1="130.00" x2="890" y2="130.00" stroke="#e6e8eb" stroke-width="1"/><text x="63" y="134.00" text-anchor="end" fill="#626975" font-size="8">0.3520</text><line x1="72" y1="58.00" x2="890" y2="58.00" stroke="#e6e8eb" stroke-width="1"/><text x="63" y="62.00" text-anchor="end" fill="#626975" font-size="8">0.3532</text>
<line x1="72" y1="58" x2="72" y2="346" stroke="#b9bec7" stroke-width="1"/><line x1="72" y1="346" x2="890" y2="346" stroke="#b9bec7" stroke-width="1"/>
<line x1="72.00" y1="346" x2="72.00" y2="350" stroke="#b9bec7" stroke-width="1"/><text x="72.00" y="363" text-anchor="middle" fill="#626975" font-size="8">09:30</text><line x1="277.12" y1="346" x2="277.12" y2="350" stroke="#b9bec7" stroke-width="1"/><text x="277.12" y="363" text-anchor="middle" fill="#626975" font-size="8">10:53</text><line x1="482.24" y1="346" x2="482.24" y2="350" stroke="#b9bec7" stroke-width="1"/><text x="482.24" y="363" text-anchor="middle" fill="#626975" font-size="8">13:15</text><line x1="687.35" y1="346" x2="687.35" y2="350" stroke="#b9bec7" stroke-width="1"/><text x="687.35" y="363" text-anchor="middle" fill="#626975" font-size="8">14:38</text><line x1="890.00" y1="346" x2="890.00" y2="350" stroke="#b9bec7" stroke-width="1"/><text x="890.00" y="363" text-anchor="middle" fill="#626975" font-size="8">16:08</text>
<line x1="72" y1="317.01" x2="890" y2="317.01" stroke="#565b65" stroke-width="1.2" stroke-dasharray="5 4"/>
<polyline points="72.00,245.89 74.47,274.83 76.94,212.47 79.41,179.61 81.89,234.70 84.36,248.94 86.83,250.04 89.30,277.59 91.77,272.49 94.24,265.22 96.71,302.00 99.18,293.18 101.66,297.41 104.13,286.84 106.60,281.61 109.07,268.78 111.54,287.45 114.01,285.00 116.48,243.94 118.95,228.87 121.43,232.67 123.90,228.81 126.37,222.77 128.84,224.99 131.31,193.36 133.78,188.74 136.25,206.47 138.73,222.06 141.20,212.41 143.67,188.63 146.14,173.57 148.61,165.17 151.08,144.21 153.55,143.46 156.02,124.38 158.50,102.14 160.97,119.30 163.44,95.15 165.91,89.79 168.38,119.67 170.85,110.07 173.32,116.54 175.79,134.09 178.27,155.41 180.74,145.20 183.21,148.23 185.68,144.12 188.15,129.57 190.62,140.48 193.09,152.39 195.56,150.65 198.04,141.67 200.51,136.27 202.98,154.19 205.45,155.00 207.92,158.07 210.39,159.20 212.86,168.24 215.34,162.48 217.81,157.37 220.28,168.97 222.75,175.52 225.22,184.23 227.69,187.72 230.16,197.38 232.63,213.54 235.11,242.23 237.58,223.95 240.05,222.07 242.52,226.83 244.99,226.29 247.46,225.44 249.93,230.75 252.40,225.84 254.88,227.42 257.35,237.54 259.82,253.44 262.29,251.12 264.76,226.53 267.23,208.37 269.70,201.80 272.18,219.50 274.65,218.66 277.12,222.99 279.59,204.64 282.06,189.66 284.53,192.56 287.00,192.22 289.47,200.84 291.95,195.63 294.42,197.66 296.89,203.79 299.36,203.27 301.83,203.35 304.30,203.72 306.77,207.75 309.24,215.37 311.72,210.38 314.19,215.01 316.66,225.29 319.13,221.27 321.60,205.43 324.07,189.93 326.54,176.72 329.02,184.21 331.49,190.86 333.96,182.53 336.43,194.54 338.90,198.83 341.37,199.26 343.84,201.06 346.31,198.05 348.79,202.97 351.26,206.15 353.73,206.65 356.20,217.38 358.67,228.85 361.14,210.95 363.61,206.77 366.08,214.48 368.56,204.57 371.03,205.20 373.50,209.55 375.97,208.47 378.44,203.35 380.91,203.97 383.38,195.66 385.85,192.44 388.33,190.75 390.80,177.58 393.27,177.72 395.74,174.04 398.21,173.06 400.68,174.78 403.15,169.93 405.63,173.89 408.10,163.16 410.57,173.38 413.04,166.60 415.51,167.52 417.98,167.48 420.45,171.27 422.92,173.74 425.40,177.00 427.87,179.47 430.34,172.52 432.81,180.65 435.28,180.52 437.75,177.56 440.22,191.14 442.69,193.15 445.17,193.15 447.64,236.62 450.11,219.80 452.58,217.63 455.05,227.62 457.52,238.03 459.99,243.29 462.47,258.45 464.94,249.25 467.41,258.56 469.88,251.39 472.35,239.92 474.82,236.99 477.29,230.54 479.76,215.39 482.24,209.71 484.71,201.10 487.18,153.97 489.65,129.95 492.12,106.75 494.59,97.67 497.06,86.64 499.53,85.87 502.01,87.26 504.48,102.27 506.95,118.68 509.42,134.81 511.89,160.82 514.36,160.46 516.83,170.67 519.31,175.24 521.78,188.55 524.25,207.70 526.72,206.13 529.19,206.19 531.66,207.97 534.13,206.47 536.60,203.43 539.08,197.38 541.55,192.67 544.02,193.30 546.49,196.60 548.96,191.39 551.43,191.51 553.90,192.30 556.37,188.00 558.85,189.95 561.32,184.10 563.79,193.73 566.26,202.02 568.73,205.71 571.20,208.46 573.67,217.86 576.15,231.33 578.62,234.79 581.09,243.71 583.56,248.16 586.03,239.84 588.50,243.28 590.97,236.79 593.44,238.45 595.92,245.16 598.39,242.65 600.86,253.01 603.33,260.34 605.80,261.10 608.27,263.76 610.74,270.45 613.21,256.80 615.69,246.22 618.16,252.76 620.63,250.29 623.10,249.54 625.57,262.70 628.04,262.68 630.51,257.15 632.98,260.64 635.46,265.93 637.93,271.17 640.40,276.29 642.87,292.61 645.34,300.05 647.81,296.46 650.28,291.78 652.76,286.42 655.23,279.84 657.70,278.60 660.17,272.96 662.64,252.50 665.11,251.65 667.58,244.84 670.05,256.18 672.53,251.42 675.00,251.13 677.47,251.96 679.94,256.70 682.41,256.47 684.88,259.07 687.35,264.67 689.82,266.96 692.30,256.14 694.77,243.58 697.24,245.60 699.71,247.33 702.18,253.38 704.65,254.10 707.12,260.60 709.60,256.83 712.07,259.92 714.54,260.44 717.01,261.16 719.48,268.44 721.95,262.39 724.42,266.72 726.89,260.59 729.37,273.56 731.84,273.02 734.31,269.15 736.78,275.84 739.25,276.40 741.72,271.31 744.19,275.80 746.66,284.67 749.14,283.58 751.61,302.44 754.08,296.85 756.55,292.81 759.02,271.76 761.49,268.80 763.96,275.13 766.44,274.39 768.91,268.98 771.38,274.59 773.85,273.19 776.32,275.70 778.79,281.44 781.26,284.45 783.73,286.19 786.21,282.02 788.68,274.16 791.15,279.83 793.62,277.25 796.09,279.04 798.56,279.39 801.03,278.46 803.50,275.32 805.98,276.58 808.45,286.56 810.92,282.29 813.39,274.78 815.86,269.15 818.33,279.65 820.80,268.91 823.27,264.05 825.75,276.88 828.22,280.94 830.69,291.36 833.16,289.28 835.63,290.59 838.10,287.47 840.57,297.47 843.05,307.37 845.52,310.66 847.99,318.13 850.46,311.36 852.93,307.22 855.40,304.09 857.87,295.69 860.34,299.33 862.82,290.50 865.29,294.10 867.76,307.77 870.23,305.80 872.70,311.81 875.17,306.85 877.64,308.09 880.11,301.32 882.59,314.17 885.06,305.27 887.53,300.94 890.00,314.54" fill="none" stroke="#2f6b9a" stroke-width="1.7" stroke-linejoin="round" stroke-linecap="round"/>
<text x="480.00" y="393" text-anchor="middle" fill="#4e535d" font-size="9">香港时间</text>
<text x="15" y="202.00" transform="rotate(-90 15 202.00)" text-anchor="middle" fill="#4e535d" font-size="9">单位净值 / IOPV</text>
</svg>