<svg xmlns="http://www.w3.org/2000/svg" width="960" height="400" viewBox="0 0 960 400" role="img" aria-labelledby="title desc">
<title id="title">520510  港股通医疗ETF华夏</title>
<desc id="desc">腾讯港股分钟价；共同时间戳交集；固定汇率 0.86482；公布净值 0.9631</desc>
<rect width="100%" height="100%" fill="white"/>
<text x="72" y="23" fill="#20242a" font-size="13" font-weight="700">520510  港股通医疗ETF华夏</text>
<text x="72" y="39" fill="#626975" font-size="8.5">腾讯港股分钟价；共同时间戳交集；固定汇率 0.86482；公布净值 0.9631</text>
<line x1="72" y1="346.00" x2="890" y2="346.00" stroke="#e6e8eb" stroke-width="1"/><text x="63" y="350.00" text-anchor="end" fill="#626975" font-size="8">0.9409</text><line x1="72" y1="274.00" x2="890" y2="274.00" stroke="#e6e8eb" stroke-width="1"/><text x="63" y="278.00" text-anchor="end" fill="#626975" font-size="8">0.9483</text><line x1="72" y1="202.00" x2="890" y2="202.00" stroke="#e6e8eb" stroke-width="1"/><text x="63" y="206.00" text-anchor="end" fill="#626975" font-size="8">0.9557</text><line x1="72" y1="130.00" x2="890" y2="130.00" stroke="#e6e8eb" stroke-width="1"/><text x="63" y="134.00" text-anchor="end" fill="#626975" font-size="8">0.9631</text><line x1="72" y1="58.00" x2="890" y2="58.00" stroke="#e6e8eb" stroke-width="1"/><text x="63" y="62.00" text-anchor="end" fill="#626975" font-size="8">0.9705</text>
<line x1="72" y1="58" x2="72" y2="346" stroke="#b9bec7" stroke-width="1"/><line x1="72" y1="346" x2="890" y2="346" stroke="#b9bec7" stroke-width="1"/>
<line x1="72.00" y1="346" x2="72.00" y2="350" stroke="#b9bec7" stroke-width="1"/><text x="72.00" y="363" text-anchor="middle" fill="#626975" font-size="8">09:30</text><line x1="277.12" y1="346" x2="277.12" y2="350" stroke="#b9bec7" stroke-width="1"/><text x="277.12" y="363" text-anchor="middle" fill="#626975" font-size="8">10:53</text><line x1="482.24" y1="346" x2="482.24" y2="350" stroke="#b9bec7" stroke-width="1"/><text x="482.24" y="363" text-anchor="middle" fill="#626975" font-size="8">13:15</text><line x1="687.35" y1="346" x2="687.35" y2="350" stroke="#b9bec7" stroke-width="1"/><text x="687.35" y="363" text-anchor="middle" fill="#626975" font-size="8">14:38</text><line x1="890.00" y1="346" x2="890.00" y2="350" stroke="#b9bec7" stroke-width="1"/><text x="890.00" y="363" text-anchor="middle" fill="#626975" font-size="8">16:08</text>
<line x1="72" y1="130.27" x2="890" y2="130.27" stroke="#565b65" stroke-width="1.2" stroke-dasharray="5 4"/>
<polyline points="72.00,318.13 74.47,293.65 76.94,256.70 79.41,252.01 81.89,249.93 84.36,270.75 86.83,280.61 89.30,272.34 91.77,291.53 94.24,287.91 96.71,283.34 99.18,296.32 101.66,286.65 104.13,282.99 106.60,290.41 109.07,297.40 111.54,305.93 114.01,298.30 116.48,286.57 118.95,275.79 121.43,286.51 123.90,301.47 126.37,296.85 128.84,267.78 131.31,254.66 133.78,241.77 136.25,274.27 138.73,287.49 141.20,291.26 143.67,285.28 146.14,286.88 148.61,275.46 151.08,255.94 153.55,264.36 156.02,260.13 158.50,266.28 160.97,274.40 163.44,266.68 165.91,266.54 168.38,280.85 170.85,274.67 173.32,282.97 175.79,287.17 178.27,292.64 180.74,295.31 183.21,297.06 185.68,298.81 188.15,289.29 190.62,290.53 193.09,301.47 195.56,295.17 198.04,290.47 200.51,289.51 202.98,287.69 205.45,282.09 207.92,274.92 210.39,278.94 212.86,286.57 215.34,287.16 217.81,286.49 220.28,290.17 222.75,286.93 225.22,284.67 227.69,284.69 230.16,288.52 232.63,296.78 235.11,296.22 237.58,297.70 240.05,298.00 242.52,295.38 244.99,298.98 247.46,304.09 249.93,309.13 252.40,299.39 254.88,292.94 257.35,292.57 259.82,295.09 262.29,292.27 264.76,292.89 267.23,278.40 269.70,276.99 272.18,282.82 274.65,282.21 277.12,286.96 279.59,289.76 282.06,290.84 284.53,298.15 287.00,298.17 289.47,299.31 291.95,304.52 294.42,300.62 296.89,305.34 299.36,303.24 301.83,300.04 304.30,298.70 306.77,302.01 309.24,302.86 311.72,296.39 314.19,298.68 316.66,298.42 319.13,296.91 321.60,291.17 324.07,289.14 326.54,276.69 329.02,273.99 331.49,270.58 333.96,266.37 336.43,269.26 338.90,274.01 341.37,273.64 343.84,275.80 346.31,272.82 348.79,274.33 351.26,274.07 353.73,272.00 356.20,272.13 358.67,269.41 361.14,269.32 363.61,262.71 366.08,257.34 368.56,256.74 371.03,257.55 373.50,250.84 375.97,248.06 378.44,246.32 380.91,244.51 383.38,235.12 385.85,218.95 388.33,219.55 390.80,223.96 393.27,224.38 395.74,227.97 398.21,225.02 400.68,224.53 403.15,214.80 405.63,207.72 408.10,200.19 410.57,198.64 413.04,193.38 415.51,201.19 417.98,204.04 420.45,207.81 422.92,214.10 425.40,218.67 427.87,215.57 430.34,216.83 432.81,217.37 435.28,214.72 437.75,215.80 440.22,218.36 442.69,216.98 445.17,216.98 447.64,234.11 450.11,241.72 452.58,237.33 455.05,232.14 457.52,218.00 459.99,215.93 462.47,226.15 464.94,230.53 467.41,227.94 469.88,219.64 472.35,216.26 474.82,206.74 477.29,191.66 479.76,181.28 482.24,187.95 484.71,191.25 487.18,172.41 489.65,155.63 492.12,152.88 494.59,155.40 497.06,140.30 499.53,130.21 502.01,130.31 504.48,131.22 506.95,131.54 509.42,122.21 511.89,135.95 514.36,137.70 516.83,140.14 519.31,140.50 521.78,129.32 524.25,131.55 526.72,129.97 529.19,128.18 531.66,130.02 534.13,135.81 536.60,135.14 539.08,121.55 541.55,127.98 544.02,128.36 546.49,138.39 548.96,139.17 551.43,137.14 553.90,126.72 556.37,118.82 558.85,107.48 561.32,85.87 563.79,103.78 566.26,104.05 568.73,103.46 571.20,103.29 573.67,114.18 576.15,135.67 578.62,148.35 581.09,141.59 583.56,142.48 586.03,137.39 588.50,127.88 590.97,126.53 593.44,125.74 595.92,127.13 598.39,127.17 600.86,126.18 603.33,128.61 605.80,129.41 608.27,129.87 610.74,123.28 613.21,122.73 615.69,122.06 618.16,125.10 620.63,121.33 623.10,122.49 625.57,135.86 628.04,130.84 630.51,142.93 632.98,147.23 635.46,146.82 637.93,149.10 640.40,156.25 642.87,155.74 645.34,158.95 647.81,158.81 650.28,156.59 652.76,158.27 655.23,150.16 657.70,149.67 660.17,150.44 662.64,147.37 665.11,140.40 667.58,137.07 670.05,144.26 672.53,140.02 675.00,136.58 677.47,137.28 679.94,139.27 682.41,141.15 684.88,132.48 687.35,133.05 689.82,134.15 692.30,131.97 694.77,130.46 697.24,132.07 699.71,131.34 702.18,128.36 704.65,134.48 707.12,136.89 709.60,132.92 712.07,134.33 714.54,134.33 717.01,129.75 719.48,134.85 721.95,128.62 724.42,130.12 726.89,130.78 729.37,129.57 731.84,129.94 734.31,130.83 736.78,131.31 739.25,133.18 741.72,131.22 744.19,132.87 746.66,131.85 749.14,131.83 751.61,139.37 754.08,141.03 756.55,139.26 759.02,140.28 761.49,141.54 763.96,138.09 766.44,144.64 768.91,145.60 771.38,145.06 773.85,144.66 776.32,143.73 778.79,141.08 781.26,142.05 783.73,146.44 786.21,145.14 788.68,146.32 791.15,148.52 793.62,146.20 796.09,150.87 798.56,149.59 801.03,146.90 803.50,138.13 805.98,136.27 808.45,138.88 810.92,137.85 813.39,135.24 815.86,135.66 818.33,136.00 820.80,134.53 823.27,135.69 825.75,138.51 828.22,140.17 830.69,137.09 833.16,138.20 835.63,136.38 838.10,138.05 840.57,134.89 843.05,132.43 845.52,134.42 847.99,133.96 850.46,132.21 852.93,128.19 855.40,134.74 857.87,137.31 860.34,134.54 862.82,131.86 865.29,132.56 867.76,138.98 870.23,139.27 872.70,137.82 875.17,137.17 877.64,136.08 880.11,136.80 882.59,137.21 885.06,133.62 887.53,129.84 890.00,128.30" fill="none" stroke="#2f6b9a" stroke-width="1.7" stroke-linejoin="round" stroke-linecap="round"/>
<text x="480.00" y="393" text-anchor="middle" fill="#4e535d" font-size="9">香港时间</text>
<text x="15" y="202.00" transform="rotate(-90 15 202.00)" text-anchor="middle" fill="#4e535d" font-size="9">单位净值 / IOPV</text>
</svg>