<svg xmlns="http://www.w3.org/2000/svg" width="960" height="400" viewBox="0 0 960 400" role="img" aria-labelledby="title desc">
<title id="title">520570  恒生科技ETF南方</title>
<desc id="desc">腾讯港股分钟价；共同时间戳交集；固定汇率 0.86482；公布净值 0.7147</desc>
<rect width="100%" height="100%" fill="white"/>
<text x="72" y="23" fill="#20242a" font-size="13" font-weight="700">520570  恒生科技ETF南方</text>
<text x="72" y="39" fill="#626975" font-size="8.5">腾讯港股分钟价；共同时间戳交集；固定汇率 0.86482；公布净值 0.7147</text>
<line x1="72" y1="346.00" x2="890" y2="346.00" stroke="#e6e8eb" stroke-width="1"/><text x="63" y="350.00" text-anchor="end" fill="#626975" font-size="8">0.7127</text><line x1="72" y1="274.00" x2="890" y2="274.00" stroke="#e6e8eb" stroke-width="1"/><text x="63" y="278.00" text-anchor="end" fill="#626975" font-size="8">0.7156</text><line x1="72" y1="202.00" x2="890" y2="202.00" stroke="#e6e8eb" stroke-width="1"/><text x="63" y="206.00" text-anchor="end" fill="#626975" font-size="8">0.7185</text><line x1="72" y1="130.00" x2="890" y2="130.00" stroke="#e6e8eb" stroke-width="1"/><text x="63" y="134.00" text-anchor="end" fill="#626975" font-size="8">0.7214</text><line x1="72" y1="58.00" x2="890" y2="58.00" stroke="#e6e8eb" stroke-width="1"/><text x="63" y="62.00" text-anchor="end" fill="#626975" font-size="8">0.7243</text>
<line x1="72" y1="58" x2="72" y2="346" stroke="#b9bec7" stroke-width="1"/><line x1="72" y1="346" x2="890" y2="346" stroke="#b9bec7" stroke-width="1"/>
<line x1="72.00" y1="346" x2="72.00" y2="350" stroke="#b9bec7" stroke-width="1"/><text x="72.00" y="363" text-anchor="middle" fill="#626975" font-size="8">09:30</text><line x1="277.12" y1="346" x2="277.12" y2="350" stroke="#b9bec7" stroke-width="1"/><text x="277.12" y="363" text-anchor="middle" fill="#626975" font-size="8">10:53</text><line x1="482.24" y1="346" x2="482.24" y2="350" stroke="#b9bec7" stroke-width="1"/><text x="482.24" y="363" text-anchor="middle" fill="#626975" font-size="8">13:15</text><line x1="687.35" y1="346" x2="687.35" y2="350" stroke="#b9bec7" stroke-width="1"/><text x="687.35" y="363" text-anchor="middle" fill="#626975" font-size="8">14:38</text><line x1="890.00" y1="346" x2="890.00" y2="350" stroke="#b9bec7" stroke-width="1"/><text x="890.00" y="363" text-anchor="middle" fill="#626975" font-size="8">16:08</text>
<line x1="72" y1="297.16" x2="890" y2="297.16" stroke="#565b65" stroke-width="1.2" stroke-dasharray="5 4"/>
<polyline points="72.00,106.85 74.47,124.81 76.94,93.79 79.41,85.87 81.89,125.29 84.36,127.15 86.83,118.33 89.30,132.12 91.77,135.48 94.24,139.42 96.71,168.75 99.18,160.03 101.66,184.44 104.13,182.82 106.60,197.60 109.07,203.02 111.54,221.43 114.01,218.73 116.48,191.77 118.95,187.73 121.43,189.56 123.90,207.15 126.37,204.54 128.84,198.64 131.31,186.65 133.78,194.90 136.25,225.67 138.73,234.11 141.20,243.26 143.67,221.00 146.14,235.78 148.61,220.45 151.08,201.16 153.55,184.26 156.02,177.97 158.50,163.56 160.97,162.81 163.44,160.09 165.91,141.62 168.38,162.29 170.85,146.20 173.32,155.84 175.79,173.54 178.27,190.37 180.74,188.04 183.21,197.57 185.68,196.85 188.15,187.88 190.62,197.81 193.09,205.40 195.56,205.19 198.04,194.00 200.51,188.71 202.98,195.11 205.45,188.57 207.92,187.04 210.39,191.36 212.86,199.07 215.34,192.29 217.81,186.81 220.28,192.60 222.75,191.14 225.22,197.90 227.69,192.27 230.16,195.22 232.63,205.40 235.11,220.89 237.58,208.54 240.05,209.58 242.52,207.02 244.99,208.78 247.46,212.83 249.93,218.26 252.40,216.74 254.88,218.44 257.35,218.41 259.82,219.82 262.29,228.21 264.76,213.04 267.23,204.07 269.70,201.21 272.18,220.81 274.65,226.87 277.12,231.63 279.59,224.21 282.06,220.01 284.53,220.70 287.00,223.82 289.47,227.41 291.95,227.37 294.42,230.26 296.89,230.87 299.36,228.55 301.83,231.78 304.30,232.33 306.77,240.24 309.24,242.35 311.72,233.27 314.19,242.14 316.66,246.34 319.13,240.39 321.60,228.48 324.07,222.45 326.54,211.75 329.02,213.26 331.49,224.12 333.96,223.34 336.43,225.97 338.90,227.97 341.37,228.17 343.84,220.55 346.31,219.01 348.79,223.56 351.26,231.38 353.73,233.66 356.20,241.72 358.67,248.90 361.14,231.19 363.61,225.69 366.08,227.71 368.56,220.44 371.03,219.65 373.50,223.26 375.97,226.83 378.44,223.68 380.91,219.58 383.38,214.58 385.85,210.11 388.33,205.98 390.80,197.73 393.27,202.42 395.74,199.78 398.21,197.89 400.68,195.76 403.15,191.93 405.63,193.32 408.10,187.12 410.57,194.33 413.04,190.02 415.51,191.58 417.98,189.66 420.45,190.92 422.92,192.87 425.40,198.07 427.87,200.50 430.34,199.17 432.81,201.19 435.28,203.17 437.75,198.38 440.22,208.72 442.69,204.60 445.17,204.60 447.64,242.28 450.11,235.83 452.58,232.35 455.05,233.32 457.52,252.59 459.99,251.21 462.47,269.23 464.94,269.75 467.41,278.90 469.88,273.15 472.35,264.85 474.82,265.97 477.29,261.77 479.76,245.66 482.24,242.01 484.71,245.06 487.18,211.56 489.65,202.46 492.12,188.35 494.59,186.66 497.06,182.81 499.53,172.62 502.01,167.20 504.48,177.81 506.95,190.51 509.42,196.38 511.89,213.51 514.36,215.23 516.83,225.75 519.31,226.81 521.78,236.41 524.25,254.19 526.72,252.84 529.19,253.81 531.66,259.08 534.13,254.27 536.60,252.34 539.08,248.19 541.55,244.75 544.02,244.03 546.49,247.25 548.96,241.37 551.43,242.46 553.90,248.92 556.37,251.10 558.85,248.32 561.32,240.96 563.79,249.87 566.26,254.01 568.73,251.65 571.20,242.01 573.67,254.77 576.15,264.40 578.62,272.08 581.09,277.07 583.56,276.02 586.03,272.93 588.50,269.86 590.97,268.79 593.44,266.06 595.92,274.09 598.39,273.47 600.86,277.34 603.33,284.35 605.80,285.13 608.27,289.54 610.74,292.54 613.21,280.27 615.69,274.61 618.16,279.00 620.63,277.92 623.10,280.76 625.57,291.59 628.04,290.96 630.51,288.76 632.98,291.46 635.46,299.96 637.93,303.05 640.40,305.98 642.87,315.44 645.34,318.13 647.81,317.83 650.28,317.63 652.76,315.32 655.23,310.60 657.70,313.05 660.17,312.85 662.64,298.01 665.11,292.31 667.58,288.92 670.05,296.51 672.53,293.62 675.00,292.19 677.47,294.34 679.94,300.27 682.41,300.54 684.88,292.56 687.35,295.83 689.82,295.78 692.30,284.50 694.77,279.47 697.24,286.63 699.71,285.73 702.18,284.08 704.65,283.00 707.12,290.05 709.60,284.39 712.07,282.46 714.54,282.04 717.01,283.20 719.48,286.67 721.95,284.62 724.42,288.84 726.89,284.24 729.37,284.99 731.84,284.00 734.31,285.43 736.78,290.23 739.25,289.40 741.72,286.33 744.19,291.46 746.66,288.41 749.14,290.96 751.61,303.88 754.08,301.43 756.55,299.26 759.02,284.91 761.49,282.64 763.96,282.47 766.44,284.58 768.91,282.28 771.38,285.50 773.85,286.23 776.32,289.73 778.79,290.70 781.26,291.40 783.73,291.39 786.21,290.44 788.68,289.11 791.15,282.84 793.62,284.15 796.09,284.58 798.56,283.58 801.03,284.04 803.50,282.47 805.98,280.74 808.45,286.38 810.92,283.15 813.39,277.33 815.86,274.05 818.33,281.84 820.80,274.23 823.27,268.85 825.75,280.18 828.22,281.08 830.69,288.52 833.16,287.83 835.63,291.38 838.10,293.04 840.57,299.98 843.05,306.20 845.52,308.07 847.99,308.25 850.46,301.84 852.93,301.37 855.40,297.95 857.87,291.55 860.34,286.20 862.82,283.69 865.29,287.36 867.76,299.20 870.23,298.22 872.70,297.91 875.17,298.56 877.64,296.85 880.11,294.53 882.59,298.14 885.06,294.65 887.53,293.47 890.00,296.07" fill="none" stroke="#2f6b9a" stroke-width="1.7" stroke-linejoin="round" stroke-linecap="round"/>
<text x="480.00" y="393" text-anchor="middle" fill="#4e535d" font-size="9">香港时间</text>
<text x="15" y="202.00" transform="rotate(-90 15 202.00)" text-anchor="middle" fill="#4e535d" font-size="9">单位净值 / IOPV</text>
</svg>