<svg xmlns="http://www.w3.org/2000/svg" width="960" height="400" viewBox="0 0 960 400" role="img" aria-labelledby="title desc">
<title id="title">520560  香港大盘30ETF华宝</title>
<desc id="desc">腾讯港股分钟价；共同时间戳交集；固定汇率 0.86482；公布净值 0.8207</desc>
<rect width="100%" height="100%" fill="white"/>
<text x="72" y="23" fill="#20242a" font-size="13" font-weight="700">520560  香港大盘30ETF华宝</text>
<text x="72" y="39" fill="#626975" font-size="8.5">腾讯港股分钟价；共同时间戳交集；固定汇率 0.86482；公布净值 0.8207</text>
<line x1="72" y1="346.00" x2="890" y2="346.00" stroke="#e6e8eb" stroke-width="1"/><text x="63" y="350.00" text-anchor="end" fill="#626975" font-size="8">0.8164</text><line x1="72" y1="274.00" x2="890" y2="274.00" stroke="#e6e8eb" stroke-width="1"/><text x="63" y="278.00" text-anchor="end" fill="#626975" font-size="8">0.8185</text><line x1="72" y1="202.00" x2="890" y2="202.00" stroke="#e6e8eb" stroke-width="1"/><text x="63" y="206.00" text-anchor="end" fill="#626975" font-size="8">0.8206</text><line x1="72" y1="130.00" x2="890" y2="130.00" stroke="#e6e8eb" stroke-width="1"/><text x="63" y="134.00" text-anchor="end" fill="#626975" font-size="8">0.8227</text><line x1="72" y1="58.00" x2="890" y2="58.00" stroke="#e6e8eb" stroke-width="1"/><text x="63" y="62.00" text-anchor="end" fill="#626975" font-size="8">0.8248</text>
<line x1="72" y1="58" x2="72" y2="346" stroke="#b9bec7" stroke-width="1"/><line x1="72" y1="346" x2="890" y2="346" stroke="#b9bec7" stroke-width="1"/>
<line x1="72.00" y1="346" x2="72.00" y2="350" stroke="#b9bec7" stroke-width="1"/><text x="72.00" y="363" text-anchor="middle" fill="#626975" font-size="8">09:30</text><line x1="277.12" y1="346" x2="277.12" y2="350" stroke="#b9bec7" stroke-width="1"/><text x="277.12" y="363" text-anchor="middle" fill="#626975" font-size="8">10:53</text><line x1="482.24" y1="346" x2="482.24" y2="350" stroke="#b9bec7" stroke-width="1"/><text x="482.24" y="363" text-anchor="middle" fill="#626975" font-size="8">13:15</text><line x1="687.35" y1="346" x2="687.35" y2="350" stroke="#b9bec7" stroke-width="1"/><text x="687.35" y="363" text-anchor="middle" fill="#626975" font-size="8">14:38</text><line x1="890.00" y1="346" x2="890.00" y2="350" stroke="#b9bec7" stroke-width="1"/><text x="890.00" y="363" text-anchor="middle" fill="#626975" font-size="8">16:08</text>
<line x1="72" y1="197.51" x2="890" y2="197.51" stroke="#565b65" stroke-width="1.2" stroke-dasharray="5 4"/>
<polyline points="72.00,318.13 74.47,250.65 76.94,207.36 79.41,215.16 81.89,253.05 84.36,263.30 86.83,261.73 89.30,301.78 91.77,276.82 94.24,281.02 96.71,314.59 99.18,313.73 101.66,307.44 104.13,304.86 106.60,284.95 109.07,293.59 111.54,296.50 114.01,298.63 116.48,265.73 118.95,267.13 121.43,255.85 123.90,261.19 126.37,244.88 128.84,240.39 131.31,223.53 133.78,221.51 136.25,241.72 138.73,236.38 141.20,227.12 143.67,210.73 146.14,202.40 148.61,190.22 151.08,198.97 153.55,206.32 156.02,200.57 158.50,193.93 160.97,199.21 163.44,193.75 165.91,193.63 168.38,213.64 170.85,210.55 173.32,224.27 175.79,251.41 178.27,273.29 180.74,257.07 183.21,272.07 185.68,273.81 188.15,265.05 190.62,265.00 193.09,263.40 195.56,248.74 198.04,235.88 200.51,226.39 202.98,247.69 205.45,246.58 207.92,253.80 210.39,252.75 212.86,258.52 215.34,254.21 217.81,256.61 220.28,258.29 222.75,258.71 225.22,269.65 227.69,265.03 230.16,254.30 232.63,251.24 235.11,274.52 237.58,257.29 240.05,260.44 242.52,254.23 244.99,246.13 247.46,245.98 249.93,242.95 252.40,235.25 254.88,243.73 257.35,249.51 259.82,262.44 262.29,257.32 264.76,237.26 267.23,218.01 269.70,209.36 272.18,226.47 274.65,226.30 277.12,232.60 279.59,216.59 282.06,201.82 284.53,215.27 287.00,215.14 289.47,221.45 291.95,215.49 294.42,223.99 296.89,233.71 299.36,236.16 301.83,238.87 304.30,235.55 306.77,242.04 309.24,242.94 311.72,242.88 314.19,255.58 316.66,268.19 319.13,264.52 321.60,246.93 324.07,233.92 326.54,227.72 329.02,233.87 331.49,239.64 333.96,231.64 336.43,232.40 338.90,234.43 341.37,225.96 343.84,224.18 346.31,215.38 348.79,219.26 351.26,224.41 353.73,231.28 356.20,228.67 358.67,240.64 361.14,228.22 363.61,224.49 366.08,228.33 368.56,218.08 371.03,224.07 373.50,222.89 375.97,228.32 378.44,226.70 380.91,217.54 383.38,209.47 385.85,209.62 388.33,208.69 390.80,201.09 393.27,204.88 395.74,199.65 398.21,198.15 400.68,194.79 403.15,192.70 405.63,196.75 408.10,187.23 410.57,189.94 413.04,179.99 415.51,175.37 417.98,177.89 420.45,182.25 422.92,181.66 425.40,183.32 427.87,183.89 430.34,178.49 432.81,184.44 435.28,183.46 437.75,177.80 440.22,188.80 442.69,191.83 445.17,191.83 447.64,232.27 450.11,216.87 452.58,207.06 455.05,210.45 457.52,223.71 459.99,223.57 462.47,241.48 464.94,242.60 467.41,251.78 469.88,240.61 472.35,217.58 474.82,219.73 477.29,211.57 479.76,206.27 482.24,200.72 484.71,198.08 487.18,144.15 489.65,119.57 492.12,110.26 494.59,103.22 497.06,85.87 499.53,89.64 502.01,93.53 504.48,113.91 506.95,124.51 509.42,146.07 511.89,169.00 514.36,163.80 516.83,166.72 519.31,174.55 521.78,178.11 524.25,199.86 526.72,198.69 529.19,203.32 531.66,206.11 534.13,207.12 536.60,193.49 539.08,184.71 541.55,179.45 544.02,177.01 546.49,178.34 548.96,177.46 551.43,175.10 553.90,172.36 556.37,164.23 558.85,157.97 561.32,154.25 563.79,160.16 566.26,166.70 568.73,165.15 571.20,165.43 573.67,169.84 576.15,179.12 578.62,174.25 581.09,184.25 583.56,192.55 586.03,183.32 588.50,186.36 590.97,177.60 593.44,180.13 595.92,183.77 598.39,192.36 600.86,197.41 603.33,206.08 605.80,205.08 608.27,198.21 610.74,210.07 613.21,197.99 615.69,193.40 618.16,195.80 620.63,191.19 623.10,186.84 625.57,197.69 628.04,196.64 630.51,194.44 632.98,193.49 635.46,204.43 637.93,207.98 640.40,209.32 642.87,233.87 645.34,237.13 647.81,232.31 650.28,226.23 652.76,216.02 655.23,210.22 657.70,213.70 660.17,205.91 662.64,186.94 665.11,182.38 667.58,178.02 670.05,181.39 672.53,175.92 675.00,181.46 677.47,180.02 679.94,187.67 682.41,180.68 684.88,178.86 687.35,189.68 689.82,188.50 692.30,176.32 694.77,166.11 697.24,167.76 699.71,171.28 702.18,172.46 704.65,173.69 707.12,181.16 709.60,176.01 712.07,182.00 714.54,173.19 717.01,171.04 719.48,179.19 721.95,173.58 724.42,174.73 726.89,167.59 729.37,178.60 731.84,170.98 734.31,171.30 736.78,173.98 739.25,167.29 741.72,167.91 744.19,174.87 746.66,177.33 749.14,181.43 751.61,198.01 754.08,185.21 756.55,180.14 759.02,157.70 761.49,156.38 763.96,162.51 766.44,166.88 768.91,157.36 771.38,163.68 773.85,164.44 776.32,166.59 778.79,164.16 781.26,168.89 783.73,167.58 786.21,171.13 788.68,163.80 791.15,171.09 793.62,164.89 796.09,169.33 798.56,167.83 801.03,169.96 803.50,161.85 805.98,171.70 808.45,178.70 810.92,166.16 813.39,164.13 815.86,156.87 818.33,165.10 820.80,152.56 823.27,150.73 825.75,157.94 828.22,167.60 830.69,173.38 833.16,177.93 835.63,174.58 838.10,174.68 840.57,185.85 843.05,191.15 845.52,190.61 847.99,206.23 850.46,197.64 852.93,192.24 855.40,195.80 857.87,183.21 860.34,188.90 862.82,177.70 865.29,180.59 867.76,196.01 870.23,192.58 872.70,195.34 875.17,190.99 877.64,196.96 880.11,189.52 882.59,198.14 885.06,197.86 887.53,192.18 890.00,196.26" fill="none" stroke="#2f6b9a" stroke-width="1.7" stroke-linejoin="round" stroke-linecap="round"/>
<text x="480.00" y="393" text-anchor="middle" fill="#4e535d" font-size="9">香港时间</text>
<text x="15" y="202.00" transform="rotate(-90 15 202.00)" text-anchor="middle" fill="#4e535d" font-size="9">单位净值 / IOPV</text>
</svg>