<svg xmlns="http://www.w3.org/2000/svg" width="960" height="400" viewBox="0 0 960 400" role="img" aria-labelledby="title desc">
<title id="title">520680  港股通汽车ETF南方</title>
<desc id="desc">腾讯港股分钟价；共同时间戳交集；固定汇率 0.86482；公布净值 0.7979</desc>
<rect width="100%" height="100%" fill="white"/>
<text x="72" y="23" fill="#20242a" font-size="13" font-weight="700">520680  港股通汽车ETF南方</text>
<text x="72" y="39" fill="#626975" font-size="8.5">腾讯港股分钟价；共同时间戳交集；固定汇率 0.86482；公布净值 0.7979</text>
<line x1="72" y1="346.00" x2="890" y2="346.00" stroke="#e6e8eb" stroke-width="1"/><text x="63" y="350.00" text-anchor="end" fill="#626975" font-size="8">0.7890</text><line x1="72" y1="274.00" x2="890" y2="274.00" stroke="#e6e8eb" stroke-width="1"/><text x="63" y="278.00" text-anchor="end" fill="#626975" font-size="8">0.7923</text><line x1="72" y1="202.00" x2="890" y2="202.00" stroke="#e6e8eb" stroke-width="1"/><text x="63" y="206.00" text-anchor="end" fill="#626975" font-size="8">0.7955</text><line x1="72" y1="130.00" x2="890" y2="130.00" stroke="#e6e8eb" stroke-width="1"/><text x="63" y="134.00" text-anchor="end" fill="#626975" font-size="8">0.7988</text><line x1="72" y1="58.00" x2="890" y2="58.00" stroke="#e6e8eb" stroke-width="1"/><text x="63" y="62.00" text-anchor="end" fill="#626975" font-size="8">0.8021</text>
<line x1="72" y1="58" x2="72" y2="346" stroke="#b9bec7" stroke-width="1"/><line x1="72" y1="346" x2="890" y2="346" stroke="#b9bec7" stroke-width="1"/>
<line x1="72.00" y1="346" x2="72.00" y2="350" stroke="#b9bec7" stroke-width="1"/><text x="72.00" y="363" text-anchor="middle" fill="#626975" font-size="8">09:30</text><line x1="277.12" y1="346" x2="277.12" y2="350" stroke="#b9bec7" stroke-width="1"/><text x="277.12" y="363" text-anchor="middle" fill="#626975" font-size="8">10:53</text><line x1="482.24" y1="346" x2="482.24" y2="350" stroke="#b9bec7" stroke-width="1"/><text x="482.24" y="363" text-anchor="middle" fill="#626975" font-size="8">13:15</text><line x1="687.35" y1="346" x2="687.35" y2="350" stroke="#b9bec7" stroke-width="1"/><text x="687.35" y="363" text-anchor="middle" fill="#626975" font-size="8">14:38</text><line x1="890.00" y1="346" x2="890.00" y2="350" stroke="#b9bec7" stroke-width="1"/><text x="890.00" y="363" text-anchor="middle" fill="#626975" font-size="8">16:08</text>
<line x1="72" y1="149.68" x2="890" y2="149.68" stroke="#565b65" stroke-width="1.2" stroke-dasharray="5 4"/>
<polyline points="72.00,85.87 74.47,120.29 76.94,127.12 79.41,120.88 81.89,173.54 84.36,200.15 86.83,206.14 89.30,228.71 91.77,219.14 94.24,222.25 96.71,223.98 99.18,243.27 101.66,266.05 104.13,303.75 106.60,308.01 109.07,318.13 111.54,310.75 114.01,310.96 116.48,317.78 118.95,305.43 121.43,291.79 123.90,305.52 126.37,302.19 128.84,284.74 131.31,263.87 133.78,244.03 136.25,263.79 138.73,255.55 141.20,246.00 143.67,228.62 146.14,221.80 148.61,227.19 151.08,220.28 153.55,224.19 156.02,229.33 158.50,199.30 160.97,196.47 163.44,194.52 165.91,166.50 168.38,166.58 170.85,159.21 173.32,169.36 175.79,189.51 178.27,212.92 180.74,198.85 183.21,212.10 185.68,211.48 188.15,203.12 190.62,207.26 193.09,218.60 195.56,230.18 198.04,222.51 200.51,226.19 202.98,227.83 205.45,225.46 207.92,223.17 210.39,230.74 212.86,234.21 215.34,240.83 217.81,240.06 220.28,245.82 222.75,237.29 225.22,235.54 227.69,232.11 230.16,232.41 232.63,238.86 235.11,239.14 237.58,242.14 240.05,242.60 242.52,234.51 244.99,216.97 247.46,223.44 249.93,224.76 252.40,212.13 254.88,209.58 257.35,210.05 259.82,215.43 262.29,218.17 264.76,212.75 267.23,196.22 269.70,196.45 272.18,204.06 274.65,215.71 277.12,220.00 279.59,222.34 282.06,216.16 284.53,228.87 287.00,234.56 289.47,235.80 291.95,246.84 294.42,247.31 296.89,245.11 299.36,240.93 301.83,240.65 304.30,248.52 306.77,257.81 309.24,257.24 311.72,252.53 314.19,263.37 316.66,257.41 319.13,253.93 321.60,243.44 324.07,239.05 326.54,223.68 329.02,227.42 331.49,222.38 333.96,222.46 336.43,227.54 338.90,224.99 341.37,218.17 343.84,200.45 346.31,206.84 348.79,213.44 351.26,222.29 353.73,218.79 356.20,230.48 358.67,229.15 361.14,218.81 363.61,215.44 366.08,218.15 368.56,214.86 371.03,210.07 373.50,210.26 375.97,208.74 378.44,210.48 380.91,211.69 383.38,212.65 385.85,205.90 388.33,208.05 390.80,201.68 393.27,199.80 395.74,198.64 398.21,196.11 400.68,188.50 403.15,191.30 405.63,189.90 408.10,188.18 410.57,187.96 413.04,186.00 415.51,186.71 417.98,190.08 420.45,189.14 422.92,193.65 425.40,190.95 427.87,196.12 430.34,194.34 432.81,187.21 435.28,186.55 437.75,185.84 440.22,194.16 442.69,196.45 445.17,196.45 447.64,243.68 450.11,238.76 452.58,230.75 455.05,238.57 457.52,245.61 459.99,244.23 462.47,253.08 464.94,252.12 467.41,255.27 469.88,254.56 472.35,243.41 474.82,227.62 477.29,217.62 479.76,205.55 482.24,198.90 484.71,197.85 487.18,170.90 489.65,158.87 492.12,162.32 494.59,161.37 497.06,173.68 499.53,164.38 502.01,145.88 504.48,153.38 506.95,152.45 509.42,156.18 511.89,171.88 514.36,167.01 516.83,179.25 519.31,175.05 521.78,183.64 524.25,183.68 526.72,192.90 529.19,193.05 531.66,199.11 534.13,194.88 536.60,189.97 539.08,183.12 541.55,179.93 544.02,180.11 546.49,182.30 548.96,177.58 551.43,178.02 553.90,179.81 556.37,178.95 558.85,169.71 561.32,162.22 563.79,169.22 566.26,175.09 568.73,167.72 571.20,157.76 573.67,161.81 576.15,159.27 578.62,167.19 581.09,176.22 583.56,183.72 586.03,180.57 588.50,177.92 590.97,177.16 593.44,185.63 595.92,184.60 598.39,188.56 600.86,185.15 603.33,191.43 605.80,193.99 608.27,200.10 610.74,197.87 613.21,192.87 615.69,187.52 618.16,185.99 620.63,186.16 623.10,179.78 625.57,188.44 628.04,186.66 630.51,188.83 632.98,191.78 635.46,193.31 637.93,197.07 640.40,204.60 642.87,210.55 645.34,210.37 647.81,209.38 650.28,210.66 652.76,203.63 655.23,206.16 657.70,205.33 660.17,204.00 662.64,201.60 665.11,202.64 667.58,189.28 670.05,187.09 672.53,186.64 675.00,186.93 677.47,191.08 679.94,193.73 682.41,187.08 684.88,187.04 687.35,190.51 689.82,184.33 692.30,174.78 694.77,169.97 697.24,166.60 699.71,170.03 702.18,160.88 704.65,166.41 707.12,174.49 709.60,167.76 712.07,170.07 714.54,168.63 717.01,171.03 719.48,171.78 721.95,170.71 724.42,173.81 726.89,171.01 729.37,170.49 731.84,168.37 734.31,166.53 736.78,166.07 739.25,164.74 741.72,161.00 744.19,170.15 746.66,168.61 749.14,171.64 751.61,180.98 754.08,174.43 756.55,173.11 759.02,168.39 761.49,167.58 763.96,162.75 766.44,164.85 768.91,163.04 771.38,162.78 773.85,162.61 776.32,164.59 778.79,163.89 781.26,162.20 783.73,166.08 786.21,167.99 788.68,171.18 791.15,157.96 793.62,161.24 796.09,158.45 798.56,157.91 801.03,154.39 803.50,156.36 805.98,154.24 808.45,152.19 810.92,146.16 813.39,146.66 815.86,143.53 818.33,140.13 820.80,143.29 823.27,143.93 825.75,147.79 828.22,150.49 830.69,158.39 833.16,154.64 835.63,150.11 838.10,157.01 840.57,163.32 843.05,169.90 845.52,169.44 847.99,174.67 850.46,171.03 852.93,170.74 855.40,175.06 857.87,174.17 860.34,166.23 862.82,163.25 865.29,165.41 867.76,171.49 870.23,168.76 872.70,173.09 875.17,172.87 877.64,174.26 880.11,173.16 882.59,166.58 885.06,173.33 887.53,171.76 890.00,150.43" fill="none" stroke="#2f6b9a" stroke-width="1.7" stroke-linejoin="round" stroke-linecap="round"/>
<text x="480.00" y="393" text-anchor="middle" fill="#4e535d" font-size="9">香港时间</text>
<text x="15" y="202.00" transform="rotate(-90 15 202.00)" text-anchor="middle" fill="#4e535d" font-size="9">单位净值 / IOPV</text>
</svg>