<svg xmlns="http://www.w3.org/2000/svg" width="960" height="400" viewBox="0 0 960 400" role="img" aria-labelledby="title desc">
<title id="title">520650  港股通互联网ETF南方</title>
<desc id="desc">腾讯港股分钟价；共同时间戳交集；固定汇率 0.86482；公布净值 0.5909</desc>
<rect width="100%" height="100%" fill="white"/>
<text x="72" y="23" fill="#20242a" font-size="13" font-weight="700">520650  港股通互联网ETF南方</text>
<text x="72" y="39" fill="#626975" font-size="8.5">腾讯港股分钟价；共同时间戳交集；固定汇率 0.86482；公布净值 0.5909</text>
<line x1="72" y1="346.00" x2="890" y2="346.00" stroke="#e6e8eb" stroke-width="1"/><text x="63" y="350.00" text-anchor="end" fill="#626975" font-size="8">0.5900</text><line x1="72" y1="274.00" x2="890" y2="274.00" stroke="#e6e8eb" stroke-width="1"/><text x="63" y="278.00" text-anchor="end" fill="#626975" font-size="8">0.5919</text><line x1="72" y1="202.00" x2="890" y2="202.00" stroke="#e6e8eb" stroke-width="1"/><text x="63" y="206.00" text-anchor="end" fill="#626975" font-size="8">0.5939</text><line x1="72" y1="130.00" x2="890" y2="130.00" stroke="#e6e8eb" stroke-width="1"/><text x="63" y="134.00" text-anchor="end" fill="#626975" font-size="8">0.5958</text><line x1="72" y1="58.00" x2="890" y2="58.00" stroke="#e6e8eb" stroke-width="1"/><text x="63" y="62.00" text-anchor="end" fill="#626975" font-size="8">0.5977</text>
<line x1="72" y1="58" x2="72" y2="346" stroke="#b9bec7" stroke-width="1"/><line x1="72" y1="346" x2="890" y2="346" stroke="#b9bec7" stroke-width="1"/>
<line x1="72.00" y1="346" x2="72.00" y2="350" stroke="#b9bec7" stroke-width="1"/><text x="72.00" y="363" text-anchor="middle" fill="#626975" font-size="8">09:30</text><line x1="277.12" y1="346" x2="277.12" y2="350" stroke="#b9bec7" stroke-width="1"/><text x="277.12" y="363" text-anchor="middle" fill="#626975" font-size="8">10:53</text><line x1="482.24" y1="346" x2="482.24" y2="350" stroke="#b9bec7" stroke-width="1"/><text x="482.24" y="363" text-anchor="middle" fill="#626975" font-size="8">13:15</text><line x1="687.35" y1="346" x2="687.35" y2="350" stroke="#b9bec7" stroke-width="1"/><text x="687.35" y="363" text-anchor="middle" fill="#626975" font-size="8">14:38</text><line x1="890.00" y1="346" x2="890.00" y2="350" stroke="#b9bec7" stroke-width="1"/><text x="890.00" y="363" text-anchor="middle" fill="#626975" font-size="8">16:08</text>
<line x1="72" y1="313.10" x2="890" y2="313.10" stroke="#565b65" stroke-width="1.2" stroke-dasharray="5 4"/>
<polyline points="72.00,246.14 74.47,274.97 76.94,212.61 79.41,179.80 81.89,234.85 84.36,249.05 86.83,250.17 89.30,277.70 91.77,272.57 94.24,265.30 96.71,302.10 99.18,293.28 101.66,297.48 104.13,286.91 106.60,281.66 109.07,268.82 111.54,287.49 114.01,285.04 116.48,243.97 118.95,228.88 121.43,232.68 123.90,228.82 126.37,222.76 128.84,224.96 131.31,193.32 133.78,188.71 136.25,206.44 138.73,222.03 141.20,212.39 143.67,188.59 146.14,173.50 148.61,165.10 151.08,144.14 153.55,143.38 156.02,124.31 158.50,102.11 160.97,119.28 163.44,95.17 165.91,89.78 168.38,119.65 170.85,110.05 173.32,116.52 175.79,134.07 178.27,155.39 180.74,145.20 183.21,148.23 185.68,144.12 188.15,129.59 190.62,140.50 193.09,152.38 195.56,150.63 198.04,141.66 200.51,136.26 202.98,154.18 205.45,154.96 207.92,158.02 210.39,159.14 212.86,168.15 215.34,162.39 217.81,157.29 220.28,168.90 222.75,175.46 225.22,184.16 227.69,187.64 230.16,197.30 232.63,213.44 235.11,242.13 237.58,223.86 240.05,221.99 242.52,226.75 244.99,226.22 247.46,225.37 249.93,230.67 252.40,225.77 254.88,227.31 257.35,237.44 259.82,253.37 262.29,251.04 264.76,226.45 267.23,208.29 269.70,201.71 272.18,219.42 274.65,218.59 277.12,222.93 279.59,204.56 282.06,189.57 284.53,192.47 287.00,192.12 289.47,200.76 291.95,195.55 294.42,197.58 296.89,203.71 299.36,203.20 301.83,203.29 304.30,203.66 306.77,207.69 309.24,215.30 311.72,210.29 314.19,214.94 316.66,225.24 319.13,221.21 321.60,205.38 324.07,189.87 326.54,176.67 329.02,184.17 331.49,190.82 333.96,182.48 336.43,194.47 338.90,198.77 341.37,199.19 343.84,200.98 346.31,197.97 348.79,202.89 351.26,206.08 353.73,206.57 356.20,217.28 358.67,228.74 361.14,210.86 363.61,206.68 366.08,214.39 368.56,204.49 371.03,205.12 373.50,209.45 375.97,208.37 378.44,203.26 380.91,203.87 383.38,195.58 385.85,192.33 388.33,190.65 390.80,177.49 393.27,177.64 395.74,173.97 398.21,172.98 400.68,174.70 403.15,169.85 405.63,173.79 408.10,163.06 410.57,173.28 413.04,166.49 415.51,167.41 417.98,167.39 420.45,171.16 422.92,173.65 425.40,176.90 427.87,179.37 430.34,172.42 432.81,180.57 435.28,180.45 437.75,177.47 440.22,191.06 442.69,193.07 445.17,193.07 447.64,236.56 450.11,219.74 452.58,217.59 455.05,227.58 457.52,238.00 459.99,243.25 462.47,258.41 464.94,249.21 467.41,258.52 469.88,251.35 472.35,239.88 474.82,236.95 477.29,230.50 479.76,215.35 482.24,209.68 484.71,201.08 487.18,153.96 489.65,129.95 492.12,106.76 494.59,97.69 497.06,86.66 499.53,85.87 502.01,87.21 504.48,102.22 506.95,118.64 509.42,134.77 511.89,160.78 514.36,160.42 516.83,170.64 519.31,175.19 521.78,188.51 524.25,207.66 526.72,206.10 529.19,206.16 531.66,207.94 534.13,206.46 536.60,203.42 539.08,197.36 541.55,192.66 544.02,193.28 546.49,196.58 548.96,191.36 551.43,191.49 553.90,192.28 556.37,187.97 558.85,189.93 561.32,184.08 563.79,193.71 566.26,202.01 568.73,205.69 571.20,208.45 573.67,217.84 576.15,231.32 578.62,234.78 581.09,243.70 583.56,248.14 586.03,239.82 588.50,243.26 590.97,236.77 593.44,238.43 595.92,245.12 598.39,242.61 600.86,252.98 603.33,260.30 605.80,261.06 608.27,263.72 610.74,270.42 613.21,256.78 615.69,246.21 618.16,252.74 620.63,250.27 623.10,249.52 625.57,262.67 628.04,262.63 630.51,257.11 632.98,260.61 635.46,265.90 637.93,271.11 640.40,276.24 642.87,292.56 645.34,300.00 647.81,296.40 650.28,291.72 652.76,286.37 655.23,279.78 657.70,278.55 660.17,272.89 662.64,252.43 665.11,251.56 667.58,244.77 670.05,256.09 672.53,251.33 675.00,251.05 677.47,251.90 679.94,256.63 682.41,256.40 684.88,259.00 687.35,264.62 689.82,266.91 692.30,256.09 694.77,243.54 697.24,245.58 699.71,247.28 702.18,253.33 704.65,254.07 707.12,260.55 709.60,256.79 712.07,259.90 714.54,260.39 717.01,261.13 719.48,268.39 721.95,262.34 724.42,266.67 726.89,260.55 729.37,273.51 731.84,272.97 734.31,269.09 736.78,275.78 739.25,276.34 741.72,271.26 744.19,275.75 746.66,284.62 749.14,283.53 751.61,302.39 754.08,296.81 756.55,292.75 759.02,271.72 761.49,268.77 763.96,275.08 766.44,274.36 768.91,268.95 771.38,274.56 773.85,273.17 776.32,275.68 778.79,281.42 781.26,284.42 783.73,286.16 786.21,281.98 788.68,274.14 791.15,279.81 793.62,277.22 796.09,279.01 798.56,279.37 801.03,278.43 803.50,275.30 805.98,276.57 808.45,286.55 810.92,282.27 813.39,274.75 815.86,269.12 818.33,279.62 820.80,268.88 823.27,264.04 825.75,276.85 828.22,280.92 830.69,291.33 833.16,289.26 835.63,290.57 838.10,287.45 840.57,297.46 843.05,307.37 845.52,310.65 847.99,318.13 850.46,311.34 852.93,307.20 855.40,304.09 857.87,295.67 860.34,299.30 862.82,290.47 865.29,294.07 867.76,307.76 870.23,305.77 872.70,311.78 875.17,306.82 877.64,308.07 880.11,301.30 882.59,314.15 885.06,305.24 887.53,300.91 890.00,314.53" fill="none" stroke="#2f6b9a" stroke-width="1.7" stroke-linejoin="round" stroke-linecap="round"/>
<text x="480.00" y="393" text-anchor="middle" fill="#4e535d" font-size="9">香港时间</text>
<text x="15" y="202.00" transform="rotate(-90 15 202.00)" text-anchor="middle" fill="#4e535d" font-size="9">单位净值 / IOPV</text>
</svg>